<?xml version="1.0" standalone="no"?>
<!DOCTYPE svg PUBLIC "-//W3C//DTD SVG 20010904//EN"
 "http://www.w3.org/TR/2001/REC-SVG-20010904/DTD/svg10.dtd">
<svg version="1.0" xmlns="http://www.w3.org/2000/svg"
 width="1024.000000pt" height="1024.000000pt" viewBox="0 0 1024.000000 1024.000000"
 preserveAspectRatio="xMidYMid meet">

<g transform="translate(0.000000,1024.000000) scale(0.100000,-0.100000)"
fill="#000000" stroke="none">
<path d="M4110 8574 c-45 -20 -96 -69 -123 -119 -21 -38 -22 -52 -22 -327 0
-159 -1 -288 -2 -288 -1 0 -64 50 -140 111 -76 62 -179 145 -229 185 -50 41
-105 77 -121 80 -29 6 -196 -31 -723 -158 -113 -27 -306 -71 -429 -98 -241
-53 -271 -66 -318 -133 -40 -58 -40 -108 2 -292 20 -88 50 -225 66 -305 17
-80 61 -287 99 -460 38 -173 106 -493 150 -710 45 -217 92 -448 106 -513 33
-160 55 -197 136 -232 69 -28 104 -23 708 109 85 19 193 42 240 52 47 9 89 20
93 24 4 4 -29 38 -74 77 l-82 69 -194 -43 c-423 -94 -613 -131 -623 -119 -9
12 -45 171 -156 701 -35 171 -81 384 -100 475 -19 91 -53 251 -74 355 -22 105
-64 309 -95 454 -30 145 -54 266 -52 268 5 5 536 126 806 183 130 28 278 62
329 75 52 14 95 25 97 25 5 0 13 -37 65 -315 34 -182 56 -275 68 -288 22 -25
77 -20 265 23 139 32 148 33 164 17 16 -16 18 -73 21 -710 5 -748 2 -708 59
-785 13 -18 43 -42 66 -55 41 -21 53 -22 410 -27 l367 -5 0 83 0 82 -339 0
c-338 0 -340 0 -365 23 l-26 22 0 1145 c0 630 0 1150 0 1157 0 30 68 33 696
33 l634 0 1 -197 c1 -109 1 -230 -1 -270 -2 -65 0 -74 24 -97 l25 -26 243 0
c204 0 247 -3 266 -16 l22 -15 0 -860 c0 -846 0 -859 -20 -879 -19 -19 -33
-20 -355 -20 l-335 0 0 -84 0 -83 223 -6 c248 -7 338 -21 393 -63 41 -32 186
-193 223 -248 l26 -40 3 -941 2 -941 -27 -54 c-22 -43 -38 -60 -73 -77 l-44
-23 -936 0 c-962 0 -959 0 -1028 39 -13 7 -34 34 -45 59 l-22 47 -2 1080 -2
1080 -42 38 c-26 23 -52 37 -68 37 -41 0 -91 -36 -97 -69 -6 -29 -7 -29 -123
90 -111 114 -118 119 -157 119 -70 0 -134 -72 -113 -128 5 -13 70 -89 144
-169 74 -80 160 -173 190 -208 l55 -62 0 -911 c0 -878 1 -912 20 -974 37 -121
123 -215 236 -257 55 -21 61 -21 1052 -19 l997 3 57 27 c67 31 140 96 173 153
59 99 56 48 56 1060 l0 929 189 191 c200 201 240 247 240 277 0 35 -31 79 -65
94 -71 29 -76 26 -253 -148 l-164 -163 -16 25 c-9 14 -57 68 -108 120 l-91 95
28 45 c43 65 49 99 49 265 l0 151 86 369 c47 204 98 429 114 500 47 210 190
779 198 786 8 8 679 -140 981 -215 101 -25 193 -46 203 -46 14 0 18 -5 14 -17
-20 -69 -116 -499 -116 -519 0 -14 11 -35 23 -48 24 -24 53 -32 292 -83 66
-14 136 -30 155 -37 33 -11 35 -13 34 -56 -1 -25 -63 -328 -138 -675 -76 -346
-149 -686 -163 -755 -30 -146 -42 -170 -83 -170 -17 0 -117 21 -223 46 -105
25 -271 61 -367 80 -96 18 -235 47 -309 63 l-134 30 -76 -66 c-42 -37 -77 -70
-79 -74 -4 -9 22 -15 383 -88 160 -33 400 -85 535 -116 311 -71 301 -69 343
-56 44 15 114 81 133 126 14 34 41 156 163 725 39 179 104 480 146 670 72 328
75 347 62 382 -8 20 -66 123 -129 230 -63 106 -161 273 -218 371 -56 98 -112
185 -125 193 -12 8 -69 23 -126 33 -140 26 -374 77 -772 168 -183 41 -358 77
-389 80 -105 10 -180 -49 -206 -162 -47 -199 -177 -684 -192 -717 l-20 -43 0
277 c0 165 -4 288 -10 304 -6 15 -70 88 -143 163 -73 75 -208 219 -300 321
-92 102 -182 193 -200 203 -29 16 -83 17 -727 17 -598 -1 -700 -3 -730 -16z
m1654 -468 l91 -99 -99 6 c-54 4 -105 12 -112 18 -10 8 -14 39 -14 112 l0 100
21 -19 c12 -10 62 -64 113 -118z m-2033 -313 c100 -86 145 -130 136 -134 -23
-14 -227 -33 -236 -23 -5 5 -19 63 -31 129 -11 66 -23 128 -26 138 -3 9 -3 17
1 17 3 0 73 -57 156 -127z m4299 -364 c58 -96 84 -149 73 -145 -10 4 -54 16
-97 26 -45 11 -89 28 -100 39 -19 20 -19 20 4 125 13 58 24 106 26 106 1 0 44
-68 94 -151z"/>
<path d="M4450 7275 l0 -285 60 0 60 0 0 105 0 105 69 0 c80 0 115 11 155 48
72 68 76 184 8 255 -39 41 -107 57 -239 57 l-113 0 0 -285z m239 160 c48 -24
55 -72 16 -110 -20 -21 -34 -25 -80 -25 l-55 0 0 75 0 75 45 0 c26 0 59 -7 74
-15z"/>
<path d="M4915 7548 c-3 -7 -4 -134 -2 -283 l2 -270 135 0 c119 1 140 3 177
23 54 28 100 85 118 146 20 65 19 190 -1 249 -19 56 -86 121 -140 136 -57 16
-283 14 -289 -1z m270 -120 c38 -30 55 -76 55 -150 -1 -122 -48 -178 -152
-178 l-53 0 0 175 0 175 61 0 c48 0 67 -5 89 -22z"/>
<path d="M5440 7275 l0 -285 60 0 60 0 0 118 0 119 93 -1 92 -1 3 53 3 52 -95
0 -96 0 0 60 0 60 108 0 107 0 -1 53 -2 52 -166 3 -166 2 0 -285z"/>
<path d="M3651 7189 c-79 -16 -145 -30 -147 -31 -2 -3 97 -530 101 -535 1 -2
27 2 58 8 50 10 56 14 52 33 -16 77 -35 180 -35 191 0 8 29 17 81 26 45 7 83
18 86 25 2 7 -1 31 -7 53 -8 32 -15 41 -28 37 -42 -12 -143 -28 -148 -23 -3 3
-11 27 -18 55 l-14 50 92 17 c50 10 95 21 99 25 9 8 -12 101 -22 99 -3 -1 -71
-14 -150 -30z"/>
<path d="M6666 7159 c-6 -35 -98 -434 -112 -480 -3 -12 8 -18 47 -27 28 -7 54
-12 58 -12 4 0 16 38 25 83 10 46 21 89 25 96 6 9 24 8 76 -4 38 -9 81 -13 99
-9 84 17 136 84 136 174 0 106 -45 147 -202 185 -62 15 -120 29 -129 31 -12 3
-18 -5 -23 -37z m182 -111 c44 -13 68 -58 50 -95 -21 -42 -40 -49 -104 -35
-31 6 -58 13 -60 14 -1 2 5 33 14 70 17 74 13 73 100 46z"/>
<path d="M3110 7086 c-58 -13 -104 -27 -103 -32 0 -5 20 -108 43 -229 23 -121
45 -238 49 -260 8 -47 2 -46 160 -13 90 18 110 26 144 57 74 67 100 158 77
273 -21 107 -73 179 -152 212 -48 21 -89 19 -218 -8z m168 -90 c41 -21 58 -46
76 -105 41 -139 1 -223 -114 -238 l-37 -5 -33 167 c-17 91 -30 169 -27 172 7
6 64 21 90 22 10 1 30 -5 45 -13z"/>
<path d="M7116 7073 c-13 -46 -117 -515 -114 -518 7 -6 245 -55 269 -55 43 0
126 48 158 92 71 96 94 253 52 342 -33 66 -79 93 -218 127 -138 34 -140 34
-147 12z m172 -124 c57 -16 92 -58 92 -109 0 -152 -74 -240 -183 -219 -61 11
-69 16 -58 37 4 9 23 83 41 165 27 120 36 146 49 143 9 -3 35 -10 59 -17z"/>
<path d="M2650 7001 c-73 -15 -85 -20 -82 -36 23 -125 102 -518 105 -522 6 -5
82 8 97 17 10 6 9 26 -5 99 -9 50 -18 94 -19 98 0 4 26 12 60 18 118 21 174
77 174 175 0 66 -24 110 -79 147 -42 28 -123 29 -251 4z m195 -106 c47 -46 21
-99 -60 -120 -28 -7 -53 -11 -56 -9 -11 6 -31 126 -22 134 11 11 41 17 81 19
23 1 41 -7 57 -24z"/>
<path d="M7601 6867 c-13 -61 -41 -183 -61 -269 l-37 -158 36 -9 c86 -21 76
-30 102 90 26 122 20 117 114 94 97 -23 95 -25 110 50 l6 31 -91 19 c-49 10
-90 22 -90 25 2 14 26 100 30 104 3 2 41 -4 85 -14 112 -27 111 -27 124 26 7
26 11 48 9 49 -2 3 -303 75 -311 75 -1 0 -13 -51 -26 -113z"/>
<path d="M4953 6715 l-23 -16 0 -482 0 -482 -108 3 c-171 6 -171 -14 0 -205
54 -60 111 -127 127 -150 30 -41 100 -83 139 -83 60 0 101 32 254 197 84 91
157 172 162 180 5 9 4 25 -2 38 -10 21 -18 23 -106 27 -60 2 -100 8 -108 16
-20 20 -26 151 -27 563 -1 321 -3 378 -16 389 -9 8 -62 14 -142 17 -108 4
-132 2 -150 -12z"/>
<path d="M4970 5050 c-19 -19 -20 -33 -20 -220 l0 -200 -225 0 -225 0 -16 -25
c-25 -38 -15 -252 12 -272 13 -10 70 -13 235 -13 l218 0 3 -196 c3 -180 5
-197 22 -210 15 -10 52 -14 137 -14 157 0 149 -12 149 232 l0 188 215 0 c270
0 255 -9 255 153 0 168 17 157 -251 157 l-219 0 0 204 c0 251 10 236 -157 236
-100 0 -115 -2 -133 -20z"/>
<path d="M2439 3025 c-102 -33 -195 -124 -220 -218 -18 -69 -8 -185 22 -242
42 -83 98 -116 299 -181 192 -62 264 -94 280 -123 5 -11 10 -40 10 -64 0 -39
-5 -49 -35 -75 -108 -95 -340 -55 -376 66 l-11 37 -105 -3 -106 -3 6 -52 c22
-183 175 -286 425 -287 284 0 436 128 435 366 -1 88 -24 145 -81 196 -60 54
-104 73 -285 125 -228 64 -257 82 -257 159 0 83 77 131 194 122 100 -8 154
-47 178 -127 3 -10 30 -14 111 -15 124 -1 119 -7 86 99 -17 55 -31 78 -72 120
-29 28 -79 64 -112 80 -56 28 -68 30 -200 32 -102 2 -153 -2 -186 -12z"/>
<path d="M5390 2458 l0 -558 120 0 120 0 0 189 0 189 126 1 c197 3 269 23 355
99 68 60 92 123 97 250 4 99 3 105 -26 165 -45 91 -93 141 -169 179 -73 36
-46 33 -476 41 l-147 2 0 -557z m500 340 c65 -33 92 -84 87 -165 -2 -52 -8
-69 -33 -100 -41 -51 -78 -62 -209 -62 l-110 -1 0 175 0 175 110 0 c95 0 117
-3 155 -22z"/>
<path d="M6330 2458 l0 -558 244 0 c134 0 268 4 297 10 83 15 191 73 241 128
97 108 128 209 128 417 0 199 -31 292 -133 401 -66 71 -161 125 -249 143 -29
6 -160 12 -291 13 l-237 3 0 -557z m505 332 c58 -28 129 -107 150 -168 45
-128 25 -340 -41 -426 -56 -74 -97 -90 -247 -96 l-127 -5 0 364 0 364 110 -6
c84 -4 122 -11 155 -27z"/>
<path d="M7380 2458 l0 -558 120 0 120 0 0 225 0 225 205 0 205 0 0 95 0 95
-205 0 -205 0 0 140 0 140 233 0 232 0 -1 97 -1 96 -351 1 -352 1 0 -557z"/>
<path d="M4385 2716 c-23 -9 -61 -37 -90 -68 l-50 -54 3 58 4 58 -106 0 -106
0 0 -405 0 -405 114 0 115 0 3 286 3 286 33 29 c26 24 41 29 82 29 72 0 98
-14 120 -62 18 -39 20 -68 20 -305 l0 -263 109 0 109 0 4 273 c3 247 5 275 22
304 25 40 54 53 119 53 55 0 85 -17 106 -57 7 -14 11 -114 11 -297 l0 -276
116 0 117 0 -6 308 c-3 179 -10 322 -16 343 -29 96 -123 166 -238 176 -104 9
-180 -25 -243 -110 l-35 -47 -7 29 c-25 94 -198 159 -313 117z"/>
<path d="M3173 2398 c5 -347 7 -363 69 -433 50 -56 101 -76 202 -77 96 -1 143
16 194 69 l34 37 -3 -47 -4 -47 110 0 110 0 -3 405 -2 405 -104 0 -104 0 -4
-262 c-4 -290 -8 -312 -68 -343 -46 -24 -133 -20 -165 8 -38 32 -44 78 -45
355 l0 242 -111 0 -111 0 5 -312z"/>
</g>
</svg>
